<svg width="70" height="69" viewBox="0 0 70 69" fill="none" xmlns="http://www.w3.org/2000/svg">
<g id="Bold Duotone / Notes / Clipboard List">
<path id="Vector" opacity="0.5" d="M60.875 45.995V28.745C60.875 20.6133 60.875 16.5474 58.3488 14.0212C56.1397 11.8121 52.7532 11.5348 46.5 11.5H23.5C17.2468 11.5348 13.8603 11.8121 11.6512 14.0212C9.125 16.5474 9.125 20.6133 9.125 28.745V45.995C9.125 54.1267 9.125 58.1926 11.6512 60.7188C14.1774 63.245 18.2433 63.245 26.375 63.245H26.375H43.625H43.625C51.7567 63.245 55.8226 63.245 58.3488 60.7188C60.875 58.1926 60.875 54.1267 60.875 45.995Z" fill="#E32B87"/>
<path id="Vector_2" d="M23.5 10.0625C23.5 7.68077 25.4308 5.75 27.8125 5.75H42.1875C44.5692 5.75 46.5 7.68077 46.5 10.0625V12.9375C46.5 15.3192 44.5692 17.25 42.1875 17.25H27.8125C25.4308 17.25 23.5 15.3192 23.5 12.9375V10.0625Z" fill="#E32B87"/>
<path id="Vector_3" fill-rule="evenodd" clip-rule="evenodd" d="M18.4688 30.1875C18.4688 28.9966 19.4341 28.0312 20.625 28.0312H22.0625C23.2534 28.0312 24.2188 28.9966 24.2188 30.1875C24.2188 31.3784 23.2534 32.3438 22.0625 32.3438H20.625C19.4341 32.3438 18.4688 31.3784 18.4688 30.1875ZM28.5312 30.1875C28.5312 28.9966 29.4966 28.0312 30.6875 28.0312H49.375C50.5659 28.0312 51.5312 28.9966 51.5312 30.1875C51.5312 31.3784 50.5659 32.3438 49.375 32.3438H30.6875C29.4966 32.3438 28.5312 31.3784 28.5312 30.1875ZM18.4688 40.25C18.4688 39.0591 19.4341 38.0938 20.625 38.0938H22.0625C23.2534 38.0938 24.2188 39.0591 24.2188 40.25C24.2188 41.4409 23.2534 42.4062 22.0625 42.4062H20.625C19.4341 42.4062 18.4688 41.4409 18.4688 40.25ZM28.5312 40.25C28.5312 39.0591 29.4966 38.0938 30.6875 38.0938H49.375C50.5659 38.0938 51.5312 39.0591 51.5312 40.25C51.5312 41.4409 50.5659 42.4062 49.375 42.4062H30.6875C29.4966 42.4062 28.5312 41.4409 28.5312 40.25ZM18.4688 50.3125C18.4688 49.1216 19.4341 48.1562 20.625 48.1562H22.0625C23.2534 48.1562 24.2188 49.1216 24.2188 50.3125C24.2188 51.5034 23.2534 52.4688 22.0625 52.4688H20.625C19.4341 52.4688 18.4688 51.5034 18.4688 50.3125ZM28.5312 50.3125C28.5312 49.1216 29.4966 48.1562 30.6875 48.1562H49.375C50.5659 48.1562 51.5312 49.1216 51.5312 50.3125C51.5312 51.5034 50.5659 52.4688 49.375 52.4688H30.6875C29.4966 52.4688 28.5312 51.5034 28.5312 50.3125Z" fill="#E32B87"/>
</g>
</svg>
