<svg width="70" height="69" viewBox="0 0 70 69" fill="none" xmlns="http://www.w3.org/2000/svg">
<g id="Bold Duotone / Money / Bill List">
<path id="Vector" opacity="0.5" d="M21.3294 5.75H48.6706C52.0023 5.75 53.6682 5.75 55.0118 6.21749C57.5595 7.104 59.5597 9.16317 60.4209 11.786C60.875 13.1691 60.875 14.884 60.875 18.3139V58.5758C60.875 61.0432 58.0431 62.3524 56.2517 60.7131C55.1993 59.75 53.6133 59.75 52.5608 60.7131L51.1719 61.9841C49.3273 63.672 46.5477 63.672 44.7031 61.9841C42.8586 60.2962 40.0789 60.2962 38.2344 61.9841C36.3898 63.672 33.6102 63.672 31.7656 61.9841C29.9211 60.2962 27.1414 60.2962 25.2969 61.9841C23.4523 63.672 20.6727 63.672 18.8281 61.9841L17.4392 60.7131C16.3868 59.75 14.8007 59.75 13.7483 60.7131C11.9569 62.3524 9.125 61.0432 9.125 58.5758V18.3139C9.125 14.884 9.125 13.1691 9.57912 11.786C10.4403 9.16317 12.4405 7.104 14.9882 6.21749C16.3318 5.75 17.9977 5.75 21.3294 5.75Z" fill="#E32B87"/>
<g id="Vector_2">
<path d="M20.625 19.4062C19.4341 19.4062 18.4688 20.3716 18.4688 21.5625C18.4688 22.7534 19.4341 23.7188 20.625 23.7188H22.0625C23.2534 23.7188 24.2188 22.7534 24.2188 21.5625C24.2188 20.3716 23.2534 19.4062 22.0625 19.4062H20.625Z" fill="#E32B87"/>
<path d="M30.6875 19.4062C29.4966 19.4062 28.5312 20.3716 28.5312 21.5625C28.5312 22.7534 29.4966 23.7188 30.6875 23.7188H49.375C50.5659 23.7188 51.5312 22.7534 51.5312 21.5625C51.5312 20.3716 50.5659 19.4062 49.375 19.4062H30.6875Z" fill="#E32B87"/>
<path d="M20.625 29.4688C19.4341 29.4688 18.4688 30.4341 18.4688 31.625C18.4688 32.8159 19.4341 33.7812 20.625 33.7812H22.0625C23.2534 33.7812 24.2188 32.8159 24.2188 31.625C24.2188 30.4341 23.2534 29.4688 22.0625 29.4688H20.625Z" fill="#E32B87"/>
<path d="M30.6875 29.4688C29.4966 29.4688 28.5312 30.4341 28.5312 31.625C28.5312 32.8159 29.4966 33.7812 30.6875 33.7812H49.375C50.5659 33.7812 51.5312 32.8159 51.5312 31.625C51.5312 30.4341 50.5659 29.4688 49.375 29.4688H30.6875Z" fill="#E32B87"/>
<path d="M20.625 39.5312C19.4341 39.5312 18.4688 40.4966 18.4688 41.6875C18.4688 42.8784 19.4341 43.8438 20.625 43.8438H22.0625C23.2534 43.8438 24.2188 42.8784 24.2188 41.6875C24.2188 40.4966 23.2534 39.5312 22.0625 39.5312H20.625Z" fill="#E32B87"/>
<path d="M30.6875 39.5312C29.4966 39.5312 28.5312 40.4966 28.5312 41.6875C28.5312 42.8784 29.4966 43.8438 30.6875 43.8438H49.375C50.5659 43.8438 51.5312 42.8784 51.5312 41.6875C51.5312 40.4966 50.5659 39.5312 49.375 39.5312H30.6875Z" fill="#E32B87"/>
</g>
</g>
</svg>
