<svg width="20" height="21" viewBox="0 0 20 21" fill="none" xmlns="http://www.w3.org/2000/svg">
<g id="Outline / Arrows / Close Mark">
<path id="Vector" fill-rule="evenodd" clip-rule="evenodd" d="M5.23013 5.73013C5.53697 5.42329 6.03446 5.42329 6.3413 5.73013L10.5 9.88885L14.6587 5.73017C14.9655 5.42333 15.463 5.42333 15.7699 5.73017C16.0767 6.03701 16.0767 6.5345 15.7699 6.84134L11.6112 11L15.7698 15.1587C16.0767 15.4655 16.0767 15.963 15.7698 16.2698C15.463 16.5767 14.9655 16.5767 14.6587 16.2698L10.5 12.1112L6.34134 16.2699C6.0345 16.5767 5.53701 16.5767 5.23017 16.2699C4.92333 15.963 4.92333 15.4655 5.23017 15.1587L9.38885 11L5.23013 6.8413C4.92329 6.53446 4.92329 6.03697 5.23013 5.73013Z" fill="#191A1A"/>
</g>
</svg>
