<svg width="20" height="20" viewBox="0 0 20 20" fill="none" xmlns="http://www.w3.org/2000/svg">
<g id="Outline / Money / Bill">
<path id="Vector" fill-rule="evenodd" clip-rule="evenodd" d="M6.77227 2.96688C6.47442 2.70212 6.02558 2.70212 5.72773 2.96688C4.98979 3.62282 3.89403 3.65132 3.125 3.05239V16.9472C3.89403 16.3483 4.98979 16.3768 5.72773 17.0328C6.02558 17.2975 6.47442 17.2975 6.77227 17.0328C7.54373 16.347 8.70627 16.347 9.47773 17.0328C9.77558 17.2975 10.2244 17.2975 10.5223 17.0328C11.2937 16.347 12.4563 16.347 13.2277 17.0328C13.5256 17.2975 13.9744 17.2975 14.2723 17.0328C15.0102 16.3768 16.106 16.3483 16.875 16.9472V3.05239C16.106 3.65132 15.0102 3.62282 14.2723 2.96688C13.9744 2.70212 13.5256 2.70212 13.2277 2.96688C12.4563 3.65262 11.2937 3.65262 10.5223 2.96688C10.2244 2.70212 9.77558 2.70212 9.47773 2.96688C8.70627 3.65262 7.54373 3.65262 6.77227 2.96688ZM4.89727 2.03262C5.66873 1.34688 6.83127 1.34688 7.60273 2.03262C7.90058 2.29737 8.34942 2.29737 8.64727 2.03262C9.41873 1.34688 10.5813 1.34688 11.3527 2.03262C11.6506 2.29737 12.0994 2.29737 12.3973 2.03262C13.1687 1.34688 14.3313 1.34688 15.1027 2.03262C15.4006 2.29737 15.8494 2.29737 16.1473 2.03262C16.9136 1.35144 18.125 1.89544 18.125 2.92075V17.0789C18.125 18.1042 16.9136 18.6482 16.1473 17.967C15.8494 17.7023 15.4006 17.7023 15.1027 17.967C14.3313 18.6528 13.1687 18.6528 12.3973 17.967C12.0994 17.7023 11.6506 17.7023 11.3527 17.967C10.5813 18.6528 9.41873 18.6528 8.64727 17.967C8.34942 17.7023 7.90058 17.7023 7.60273 17.967C6.83127 18.6528 5.66873 18.6528 4.89727 17.967C4.59942 17.7023 4.15058 17.7023 3.85273 17.967C3.08641 18.6482 1.875 18.1042 1.875 17.0789V2.92075C1.875 1.89544 3.08641 1.35144 3.85273 2.03262C4.15058 2.29737 4.59942 2.29737 4.89727 2.03262ZM5.625 7.08323C5.625 6.73805 5.90482 6.45823 6.25 6.45823H13.75C14.0952 6.45823 14.375 6.73805 14.375 7.08323C14.375 7.42841 14.0952 7.70823 13.75 7.70823H6.25C5.90482 7.70823 5.625 7.42841 5.625 7.08323ZM5.625 9.99989C5.625 9.65472 5.90482 9.37489 6.25 9.37489H13.75C14.0952 9.37489 14.375 9.65472 14.375 9.99989C14.375 10.3451 14.0952 10.6249 13.75 10.6249H6.25C5.90482 10.6249 5.625 10.3451 5.625 9.99989ZM5.625 12.9166C5.625 12.5714 5.90482 12.2916 6.25 12.2916H13.75C14.0952 12.2916 14.375 12.5714 14.375 12.9166C14.375 13.2617 14.0952 13.5416 13.75 13.5416H6.25C5.90482 13.5416 5.625 13.2617 5.625 12.9166Z" fill="#BCBFC2"/>
</g>
</svg>
