<svg width="80" height="80" viewBox="0 0 80 80" fill="none" xmlns="http://www.w3.org/2000/svg">
<g id="Bold Duotone / Money / Wallet Money">
<path id="Vector" d="M16.3057 32.0477C16.3057 30.7064 17.3845 29.6191 18.7153 29.6191H31.5667C32.8975 29.6191 33.9763 30.7064 33.9763 32.0477C33.9763 33.389 32.8975 34.4763 31.5667 34.4763H18.7153C17.3845 34.4763 16.3057 33.389 16.3057 32.0477Z" fill="#484D51"/>
<path id="Vector_2" fill-rule="evenodd" clip-rule="evenodd" d="M70.6284 33.3458C70.4209 33.3331 70.195 33.3332 69.9607 33.3333L69.9022 33.3333H60.7167C53.1454 33.3333 46.667 39.1201 46.667 46.6666C46.667 54.213 53.1454 59.9999 60.7167 59.9999H69.9022L69.9607 59.9999C70.195 60 70.4208 60.0001 70.6284 59.9874C73.7038 59.7988 76.4235 57.462 76.6522 54.198C76.6672 53.984 76.6671 53.7533 76.667 53.5394L76.6669 53.4814V39.8518L76.667 39.7937C76.6671 39.5799 76.6672 39.3492 76.6522 39.1352C76.4235 35.8712 73.7038 33.5344 70.6284 33.3458ZM59.9023 50.2221C61.8515 50.2221 63.4317 48.6302 63.4317 46.6666C63.4317 44.7029 61.8515 43.111 59.9023 43.111C57.953 43.111 56.3729 44.7029 56.3729 46.6666C56.3729 48.6302 57.953 50.2221 59.9023 50.2221Z" fill="#484D51"/>
<path id="Vector_3" opacity="0.5" d="M70.465 33.3385C70.465 29.4031 70.3219 25.1817 67.8062 22.1553C67.5634 21.8632 67.3048 21.5795 67.0295 21.3042C64.535 18.8097 61.3718 17.7026 57.4637 17.1772C53.6664 16.6667 48.8143 16.6667 42.6884 16.6667H35.6456C29.5198 16.6667 24.6676 16.6667 20.8703 17.1772C16.9622 17.7026 13.799 18.8097 11.3045 21.3042C8.80993 23.7988 7.70287 26.9619 7.17744 30.87C6.6669 34.6674 6.66694 39.5195 6.66699 45.6453V46.0215C6.66694 52.1473 6.6669 56.9995 7.17745 60.7968C7.70287 64.7049 8.80993 67.8681 11.3045 70.3626C13.799 72.8572 16.9622 73.9642 20.8703 74.4896C24.6676 75.0002 29.5197 75.0001 35.6455 75.0001H42.6884C48.8142 75.0001 53.6664 75.0002 57.4637 74.4896C61.3718 73.9642 64.535 72.8572 67.0295 70.3626C67.7112 69.6809 68.2902 68.948 68.7823 68.162C70.2839 65.7638 70.465 62.8245 70.465 59.995C70.3043 60.0002 70.1349 60.0001 69.9608 60.0001L60.7167 60.0001C53.1454 60.0001 46.667 54.2132 46.667 46.6667C46.667 39.1203 53.1454 33.3334 60.7167 33.3334L69.9607 33.3334C70.1348 33.3334 70.3043 33.3333 70.465 33.3385Z" fill="#484D51"/>
<path id="Vector_4" d="M33.6711 8.57379L26.6663 13.3085L20.8887 17.1746C24.6832 16.6667 29.5293 16.6667 35.6449 16.6667H42.6877C48.8136 16.6667 53.6657 16.6667 57.463 17.1772C58.2269 17.2799 58.9623 17.4048 59.6698 17.558L53.3329 13.3334L46.2912 8.57379C42.5294 6.03107 37.433 6.03107 33.6711 8.57379Z" fill="#484D51"/>
</g>
</svg>
